<svg xmlns="http://www.w3.org/2000/svg" viewBox="0 0 939.4 468.4"><defs><style>.a{fill:none;stroke-linecap:square;}.a,.b{stroke:#4fc083;stroke-miterlimit:10;stroke-width:37.15px;}.b{fill:#fff;stroke-linecap:round;}.c{fill:#4fc083;}</style></defs><path class="a" d="M289.7,312.6A165.9,165.9,0,1,1,263.8,38.8"/><circle class="b" cx="200" cy="334.4" r="115.3"/><path class="c" d="M191.4,294.7c-1.6,2.4-.1,6.1,3.2,8.3l37,24.8c2.7,6,.2,9.7-6.4,9.5l-36.9-24.8c-3.4-2.3-7.4-2.3-8.9.1s-.1,6,3.3,8.2l36.9,24.9c3.7,6.9.8,11.2-7,10.4l-36.9-24.8c-3.4-2.3-7.4-2.2-9,.1s0,6,3.3,8.3l37,24.8c2.6,5.9.1,9.7-6.4,9.4l-36.9-24.8c-3.4-2.3-7.4-2.2-8.9.1s-.1,6,3.2,8.3l45.7,30.7a8.2,8.2,0,0,0,6.7,1.4l31.7-9.1,100.3,67.4c6.7,4.6,14.7,4.5,17.8-.2s.2-12-6.5-16.5L253.3,363.7,249.8,331a8.3,8.3,0,0,0-3.8-5.6l-45.7-30.8C196.9,292.4,192.9,292.4,191.4,294.7Z"/><path class="c" d="M343.4,259.4c-13.1,0-23.2-4.3-30.4-13s-10.8-21.5-10.8-38.8V141.2h33.6v68.1c0,6.1,1.8,11,5.3,14.6s8.1,5.4,14,5.4,10.8-1.9,14.5-5.6,5.5-8.8,5.5-15.3V141.2h33.6V255.6H382.2V207.4h2.1c0,11.6-1.5,21.2-4.4,28.9s-7.3,13.5-13.2,17.3-13.1,5.8-21.9,5.8Z"/><path class="c" d="M429.6,166.1V141.2h48.8v24.9ZM458,130c-6.3,0-10.9-1.7-13.9-5a17.5,17.5,0,0,1-4.5-12.4,18,18,0,0,1,4.5-12.6c3-3.3,7.6-4.9,13.9-4.9s10.9,1.6,13.9,4.9a18.4,18.4,0,0,1,4.4,12.6,17.9,17.9,0,0,1-4.4,12.4C468.9,128.3,464.2,130,458,130ZM444.8,255.6V141.2h33.6V255.6Z"/><path class="c" d="M552.8,259.4c-16.3,0-29.1-3.4-38.3-10.1s-14-16.2-14.6-28.3h29.7c.5,3.6,2.7,6.8,6.6,9.7s9.5,4.3,17.2,4.3c5.8,0,10.7-1,14.5-3.1s5.7-4.9,5.7-8.6-1.5-6-4.5-8.1-8.1-3.3-15.5-4l-9-1.1c-13.8-1.4-24.1-5.2-31-11.4s-10.3-14.2-10.3-24.1c0-8,2-14.8,6-20.2a37.3,37.3,0,0,1,16.8-12.3,67.5,67.5,0,0,1,24.6-4.2c14.7,0,26.6,3.2,35.7,9.7s13.7,15.8,14.2,28.1H570.7a13.6,13.6,0,0,0-5.7-9.4c-3.4-2.7-8.4-4-14.8-4s-9.2,1-12.3,2.9-4.6,4.6-4.6,8a8.3,8.3,0,0,0,4,7.3c2.6,1.6,7,2.8,12.9,3.5l9,.9c14.1,1.5,25,5.4,32.8,11.6s11.7,14.7,11.7,25.3a32.2,32.2,0,0,1-6.3,19.9c-4.1,5.7-10.1,10-17.7,13.1S563,259.4,552.8,259.4Z"/><path class="c" d="M615.4,166.1V141.2h48.8v24.9ZM643.8,130c-6.3,0-10.9-1.7-13.9-5a17.5,17.5,0,0,1-4.5-12.4,18,18,0,0,1,4.5-12.6c3-3.3,7.6-4.9,13.9-4.9s10.9,1.6,13.9,4.9a18.4,18.4,0,0,1,4.4,12.6,17.9,17.9,0,0,1-4.4,12.4C654.7,128.3,650,130,643.8,130ZM630.6,255.6V141.2h33.6V255.6Z"/><path class="c" d="M694.9,255.6V141.2h26.7v49.1h-1.8c0-11.7,1.5-21.4,4.4-29.2s7.6-13.7,13.7-17.6,13.6-5.8,22.4-5.8h1.4c13.4,0,23.6,4.3,30.6,13s10.5,21.9,10.5,39.6v65.3H769.2V188.4c0-6.1-1.7-11.1-5.3-14.9s-8.4-5.8-14.5-5.8-11.3,2-15.1,5.9-5.8,9-5.8,15.4v66.6Z"/><path class="c" d="M883.6,259.8a62.7,62.7,0,0,1-25.7-5,52.9,52.9,0,0,1-18.7-13.6,59.9,59.9,0,0,1-11.4-19.1,61.6,61.6,0,0,1-3.9-21.6v-4.2a62.9,62.9,0,0,1,3.9-22,58.7,58.7,0,0,1,11.3-18.9,52.5,52.5,0,0,1,18.3-13.2,60.3,60.3,0,0,1,25-4.9c12.2,0,22.6,2.7,31,8.2A55.4,55.4,0,0,1,932.7,167a64,64,0,0,1,6.7,28.9v11.3H838.1v-19h81l-11,9a48.2,48.2,0,0,0-2.9-17.7,22.1,22.1,0,0,0-8.5-11c-3.8-2.6-8.6-3.9-14.3-3.9s-10.8,1.3-14.8,3.9-7.1,6.4-9.2,11.5-3.2,11.3-3.2,18.6a48.6,48.6,0,0,0,3,17.9,23.7,23.7,0,0,0,9.2,11.8c4.1,2.8,9.6,4.2,16.2,4.2s11.2-1.2,15.1-3.6a18.4,18.4,0,0,0,7.9-8.8h30.7a49.4,49.4,0,0,1-9.8,20.5,50.6,50.6,0,0,1-18.4,14.1Q898,259.8,883.6,259.8Z"/><path class="c" d="M432.9,454.2q-24.3,0-37.5-15.9c-8.9-10.7-13.3-26.6-13.3-47.9V308.5h41.5v83.9c0,7.6,2.1,13.6,6.4,18s10.1,6.7,17.3,6.7,13.3-2.3,17.9-6.9,6.8-10.9,6.8-18.8V308.5h41.5V449.6H480.8V390.1h2.5c0,14.3-1.8,26.1-5.4,35.7s-9,16.6-16.2,21.3-16.2,7.1-27,7.1Z"/><path class="c" d="M616.2,454.7c-12,0-22.6-2-31.8-6.1a65.6,65.6,0,0,1-23-16.8,74.4,74.4,0,0,1-14.1-23.5,76.7,76.7,0,0,1-4.7-26.7v-5.1a77.8,77.8,0,0,1,4.7-27.2A72.5,72.5,0,0,1,561.2,326a66.6,66.6,0,0,1,22.7-16.4c9-4,19.3-6,30.8-6,15.1,0,27.8,3.4,38.2,10.2a66.8,66.8,0,0,1,23.8,26.5,78,78,0,0,1,8.3,35.6v13.9H560.1V366.4H660l-13.7,11.1c0-8.6-1.1-15.8-3.4-21.8a29.2,29.2,0,0,0-10.6-13.6c-4.7-3.2-10.6-4.8-17.6-4.8s-13.3,1.6-18.3,4.8a29.1,29.1,0,0,0-11.3,14.1q-3.9,9.4-3.9,23.1a61.5,61.5,0,0,0,3.6,22,30.2,30.2,0,0,0,11.3,14.6q7.8,5.1,20.1,5.1c7.6,0,13.7-1.4,18.6-4.4s8-6.5,9.7-10.8h37.9a60.1,60.1,0,0,1-12.1,25.3,63.3,63.3,0,0,1-22.7,17.3C638.5,452.6,628.1,454.7,616.2,454.7Z"/><path class="c" d="M765.8,454.2c-20.1,0-35.8-4.1-47.1-12.5s-17.3-19.9-18-34.9h36.5c.7,4.5,3.4,8.5,8.2,12s11.8,5.3,21.2,5.3c7.2,0,13.2-1.2,17.9-3.7s7.1-6.1,7.1-10.7-1.9-7.4-5.6-9.9-10-4.2-19.1-5.1l-11.1-1.2c-17-1.8-29.8-6.4-38.3-14.1s-12.7-17.5-12.7-29.7c0-10,2.5-18.3,7.5-25s11.9-11.8,20.7-15.2,18.9-5.1,30.3-5.1c18.1,0,32.8,3.9,44,11.9s17,19.6,17.5,34.7H788c-.5-4.5-2.9-8.4-7.1-11.6s-10.3-4.9-18.2-4.9c-6.3,0-11.4,1.2-15.2,3.6a11.2,11.2,0,0,0-5.6,9.8,10,10,0,0,0,4.9,9c3.2,2,8.6,3.5,15.9,4.4l11.1,1c17.4,1.9,30.8,6.7,40.4,14.4s14.5,18.1,14.5,31.2a40.1,40.1,0,0,1-7.8,24.6c-5.1,6.9-12.4,12.3-21.9,16.1S778.5,454.2,765.8,454.2Z"/><path class="c" d="M838.2,338.9V308.5H939.4v30.4Zm81.4,112.8c-14.3,0-25.8-1.8-34.5-5.5a36.2,36.2,0,0,1-19.4-17.9c-4.1-8.3-6.1-19.6-6.1-33.8l.2-124.1h38.4V396c0,6.7,1.8,11.8,5.3,15.4s8.5,5.2,15,5.2h20.9v35.1Z"/></svg>